<svg xmlns="http://www.w3.org/2000/svg" xmlns:xlink="http://www.w3.org/1999/xlink" version="1.1" width="940" height="788" viewBox="0 0 940 788" xml:space="preserve">
<desc>Created with Fabric.js 3.5.0</desc>
<defs>
</defs>
<rect x="0" y="0" width="100%" height="100%" fill="rgba(255,255,255,0)"/>
<g transform="matrix(0.7865 0 0 1.1206 185.9211 629.4705)" id="606574" clip-path="url(#CLIPPATH_0)">
<clipPath id="CLIPPATH_0">
	<rect transform="matrix(1 0 0 1 -0.0001 0.0002)" x="-78.5" y="-78.5" rx="0" ry="0" width="157" height="157"/>
</clipPath>
<path style="stroke: rgb(0,0,0); stroke-width: 3; stroke-dasharray: none; stroke-linecap: butt; stroke-dashoffset: 0; stroke-linejoin: miter; stroke-miterlimit: 4; is-custom-font: none; font-file-url: none; fill: rgb(139,160,255); fill-rule: nonzero; opacity: 1;" vector-effect="non-scaling-stroke" transform=" translate(-78.5001, -78.4998)" d="M 78.5257 37.6058 C 35.1715 37.5919 0.0145857 72.7263 0.000957255 116.08 C 0.00000643565 116.126 0.00000643565 116.171 0.000957255 116.217 C 0.0386731 118.009 1.52195 119.431 3.31393 119.393 H 153.755 C 155.558 119.356 157.001 117.884 157 116.08 C 156.986 72.7459 121.86 37.6198 78.5257 37.6058 Z" stroke-linecap="round"/>
</g>
<g transform="matrix(0.7865 0 0 1.1206 106.0751 666.4293)" id="866537" clip-path="url(#CLIPPATH_1)">
<clipPath id="CLIPPATH_1">
	<rect transform="matrix(1 0 0 1 -0.0001 0.0002)" x="-78.5" y="-78.5" rx="0" ry="0" width="157" height="157"/>
</clipPath>
<path style="stroke: rgb(0,0,0); stroke-width: 3; stroke-dasharray: none; stroke-linecap: butt; stroke-dashoffset: 0; stroke-linejoin: miter; stroke-miterlimit: 4; is-custom-font: none; font-file-url: none; fill: rgb(0,146,69); fill-rule: nonzero; opacity: 1;" vector-effect="non-scaling-stroke" transform=" translate(-78.5001, -78.4998)" d="M 78.5257 37.6058 C 35.1715 37.5919 0.0145857 72.7263 0.000957255 116.08 C 0.00000643565 116.126 0.00000643565 116.171 0.000957255 116.217 C 0.0386731 118.009 1.52195 119.431 3.31393 119.393 H 153.755 C 155.558 119.356 157.001 117.884 157 116.08 C 156.986 72.7459 121.86 37.6198 78.5257 37.6058 Z" stroke-linecap="round"/>
</g>
<g transform="matrix(0.5517 0 0 0.3955 104.5331 576.7865)" id="158592">
<path style="stroke: rgb(0,0,0); stroke-width: 3; stroke-dasharray: none; stroke-linecap: butt; stroke-dashoffset: 0; stroke-linejoin: miter; stroke-miterlimit: 4; is-custom-font: none; font-file-url: none; fill: rgb(206,122,25); fill-rule: nonzero; opacity: 1;" vector-effect="non-scaling-stroke" transform=" translate(-78.4998, -78.5)" d="M 78.5 0 C 52.9419 0 32.1166 35.2271 32.1166 78.5 C 32.1166 121.773 52.9419 157 78.5 157 C 104.058 157 124.883 121.773 124.883 78.5 C 124.883 35.2271 104.058 0 78.5 0 Z" stroke-linecap="round"/>
</g>
<g transform="matrix(0.7865 0 0 1.1206 270.1991 666.4293)" id="197956" clip-path="url(#CLIPPATH_2)">
<clipPath id="CLIPPATH_2">
	<rect transform="matrix(1 0 0 1 -0.0001 0.0002)" x="-78.5" y="-78.5" rx="0" ry="0" width="157" height="157"/>
</clipPath>
<path style="stroke: rgb(0,0,0); stroke-width: 3; stroke-dasharray: none; stroke-linecap: butt; stroke-dashoffset: 0; stroke-linejoin: miter; stroke-miterlimit: 4; is-custom-font: none; font-file-url: none; fill: rgb(252,238,33); fill-rule: nonzero; opacity: 1;" vector-effect="non-scaling-stroke" transform=" translate(-78.5001, -78.4998)" d="M 78.5257 37.6058 C 35.1715 37.5919 0.0145857 72.7263 0.000957255 116.08 C 0.00000643565 116.126 0.00000643565 116.171 0.000957255 116.217 C 0.0386731 118.009 1.52195 119.431 3.31393 119.393 H 153.755 C 155.558 119.356 157.001 117.884 157 116.08 C 156.986 72.7459 121.86 37.6198 78.5257 37.6058 Z" stroke-linecap="round"/>
</g>
<g transform="matrix(0.5517 0 0 0.3955 268.1682 577.0768)" id="267365">
<path style="stroke: rgb(0,0,0); stroke-width: 3; stroke-dasharray: none; stroke-linecap: butt; stroke-dashoffset: 0; stroke-linejoin: miter; stroke-miterlimit: 4; is-custom-font: none; font-file-url: none; fill: rgb(255,255,255); fill-rule: nonzero; opacity: 1;" vector-effect="non-scaling-stroke" transform=" translate(-78.4998, -78.5)" d="M 78.5 0 C 52.9419 0 32.1166 35.2271 32.1166 78.5 C 32.1166 121.773 52.9419 157 78.5 157 C 104.058 157 124.883 121.773 124.883 78.5 C 124.883 35.2271 104.058 0 78.5 0 Z" stroke-linecap="round"/>
</g>
<g transform="matrix(0.5517 0 0 0.3955 185.9239 538.2831)" id="26692">
<path style="stroke: rgb(0,0,0); stroke-width: 3; stroke-dasharray: none; stroke-linecap: butt; stroke-dashoffset: 0; stroke-linejoin: miter; stroke-miterlimit: 4; is-custom-font: none; font-file-url: none; fill: rgb(255,51,51); fill-rule: nonzero; opacity: 1;" vector-effect="non-scaling-stroke" transform=" translate(-78.4998, -78.5)" d="M 78.5 0 C 52.9419 0 32.1166 35.2271 32.1166 78.5 C 32.1166 121.773 52.9419 157 78.5 157 C 104.058 157 124.883 121.773 124.883 78.5 C 124.883 35.2271 104.058 0 78.5 0 Z" stroke-linecap="round"/>
</g>
<g transform="matrix(0.6794 0 0 0.4871 687.7391 521.3028)" id="206945">
<path style="stroke: rgb(0,0,0); stroke-width: 3; stroke-dasharray: none; stroke-linecap: butt; stroke-dashoffset: 0; stroke-linejoin: miter; stroke-miterlimit: 4; is-custom-font: none; font-file-url: none; fill: rgb(57,181,74); fill-rule: nonzero; opacity: 1;" vector-effect="non-scaling-stroke" transform=" translate(-78.4998, -78.5)" d="M 78.5 0 C 52.9419 0 32.1166 35.2271 32.1166 78.5 C 32.1166 121.773 52.9419 157 78.5 157 C 104.058 157 124.883 121.773 124.883 78.5 C 124.883 35.2271 104.058 0 78.5 0 Z" stroke-linecap="round"/>
</g>
<g transform="matrix(0.9686 0 0 1.3799 692.1489 630.2515)" id="235763" clip-path="url(#CLIPPATH_3)">
<clipPath id="CLIPPATH_3">
	<rect transform="matrix(1 0 0 1 -0.0001 0.0002)" x="-78.5" y="-78.5" rx="0" ry="0" width="157" height="157"/>
</clipPath>
<path style="stroke: rgb(0,0,0); stroke-width: 3; stroke-dasharray: none; stroke-linecap: butt; stroke-dashoffset: 0; stroke-linejoin: miter; stroke-miterlimit: 4; is-custom-font: none; font-file-url: none; fill: rgb(247,152,160); fill-rule: nonzero; opacity: 1;" vector-effect="non-scaling-stroke" transform=" translate(-78.5001, -78.4998)" d="M 78.5257 37.6058 C 35.1715 37.5919 0.0145857 72.7263 0.000957255 116.08 C 0.00000643565 116.126 0.00000643565 116.171 0.000957255 116.217 C 0.0386731 118.009 1.52195 119.431 3.31393 119.393 H 153.755 C 155.558 119.356 157.001 117.884 157 116.08 C 156.986 72.7459 121.86 37.6198 78.5257 37.6058 Z" stroke-linecap="round"/>
</g>
<g transform="matrix(0.6794 0 0 0.487 458.7319 108.9745)" id="957359">
<path style="stroke: rgb(0,0,0); stroke-width: 3; stroke-dasharray: none; stroke-linecap: butt; stroke-dashoffset: 0; stroke-linejoin: miter; stroke-miterlimit: 4; is-custom-font: none; font-file-url: none; fill: rgb(255,51,51); fill-rule: nonzero; opacity: 1;" vector-effect="non-scaling-stroke" transform=" translate(-78.4998, -78.5)" d="M 78.5 0 C 52.9419 0 32.1166 35.2271 32.1166 78.5 C 32.1166 121.773 52.9419 157 78.5 157 C 104.058 157 124.883 121.773 124.883 78.5 C 124.883 35.2271 104.058 0 78.5 0 Z" stroke-linecap="round"/>
</g>
<g transform="matrix(0.9685 0 0 1.3799 460.2275 214.7522)" id="573476" clip-path="url(#CLIPPATH_4)">
<clipPath id="CLIPPATH_4">
	<rect transform="matrix(1 0 0 1 -0.0001 0.0002)" x="-78.5" y="-78.5" rx="0" ry="0" width="157" height="157"/>
</clipPath>
<path style="stroke: rgb(0,0,0); stroke-width: 3; stroke-dasharray: none; stroke-linecap: butt; stroke-dashoffset: 0; stroke-linejoin: miter; stroke-miterlimit: 4; is-custom-font: none; font-file-url: none; fill: rgb(168,168,168); fill-rule: nonzero; opacity: 1;" vector-effect="non-scaling-stroke" transform=" translate(-78.5001, -78.4998)" d="M 78.5257 37.6058 C 35.1715 37.5919 0.0145857 72.7263 0.000957255 116.08 C 0.00000643565 116.126 0.00000643565 116.171 0.000957255 116.217 C 0.0386731 118.009 1.52195 119.431 3.31393 119.393 H 153.755 C 155.558 119.356 157.001 117.884 157 116.08 C 156.986 72.7459 121.86 37.6198 78.5257 37.6058 Z" stroke-linecap="round"/>
</g>
<g transform="matrix(3.52 0 0 3.52 482.0392 451.8912)" id="407655">
<g style="" vector-effect="non-scaling-stroke">
		<g transform="matrix(1 0 0 1 0 0)" id="307887">
<path style="stroke: none; stroke-width: 1; stroke-dasharray: none; stroke-linecap: butt; stroke-dashoffset: 0; stroke-linejoin: miter; stroke-miterlimit: 4; is-custom-font: none; font-file-url: none; fill: rgb(0,0,0); fill-rule: nonzero; opacity: 1;" transform=" translate(-16, -16)" d="M 32 25 V 3 H 0 V 25 H 14 v 3 H 10 v 1 H 22 V 28 H 18 V 25 H 32 Z M 1 24 V 4 H 31 V 24 H 1 Z m 16 4 H 15 V 25 h 2 v 3 Z" stroke-linecap="round"/>
</g>
		<g transform="matrix(1 0 0 1 0 -2)" id="472003">
<path style="stroke: none; stroke-width: 1; stroke-dasharray: none; stroke-linecap: butt; stroke-dashoffset: 0; stroke-linejoin: miter; stroke-miterlimit: 4; is-custom-font: none; font-file-url: none; fill: rgb(0,0,0); fill-rule: nonzero; opacity: 1;" transform=" translate(-16, -14)" d="M 30 5 H 2 V 23 H 30 V 5 Z M 29 22 H 3 V 6 H 29 V 22 Z" stroke-linecap="round"/>
</g>
</g>
</g>
<g transform="matrix(1.6781 -1.7474 1.7474 1.6781 581.8551 521.3028)" id="715414">
<g style="" vector-effect="non-scaling-stroke">
		<g transform="matrix(1 0 0 1 0 7)" id="899841">
<path style="stroke: none; stroke-width: 1; stroke-dasharray: none; stroke-linecap: butt; stroke-dashoffset: 0; stroke-linejoin: miter; stroke-miterlimit: 4; is-custom-font: none; font-file-url: none; fill: rgb(4,0,154); fill-rule: nonzero; opacity: 1;" transform=" translate(-16, -23)" d="M 29 32 H 3 a 3 3 0 0 1 -3 -3 V 17 a 3 3 0 0 1 3 -3 H 16 a 1 1 0 0 1 0 2 H 3 a 1 1 0 0 0 -1 1 V 29 a 1 1 0 0 0 1 1 H 29 a 1 1 0 0 0 1 -1 V 17 a 1 1 0 0 0 -1 -1 H 20 a 1 1 0 0 1 0 -2 h 9 a 3 3 0 0 1 3 3 V 29 A 3 3 0 0 1 29 32 Z" stroke-linecap="round"/>
</g>
		<g transform="matrix(1 0 0 1 -9 3)" id="493491">
<path style="stroke: none; stroke-width: 1; stroke-dasharray: none; stroke-linecap: butt; stroke-dashoffset: 0; stroke-linejoin: miter; stroke-miterlimit: 4; is-custom-font: none; font-file-url: none; fill: rgb(119,172,241); fill-rule: nonzero; opacity: 1;" transform=" translate(-7, -19)" d="M 8 20 H 6 a 1 1 0 0 1 0 -2 H 8 a 1 1 0 0 1 0 2 Z" stroke-linecap="round"/>
</g>
		<g transform="matrix(1 0 0 1 -3 3)" id="817939">
<path style="stroke: none; stroke-width: 1; stroke-dasharray: none; stroke-linecap: butt; stroke-dashoffset: 0; stroke-linejoin: miter; stroke-miterlimit: 4; is-custom-font: none; font-file-url: none; fill: rgb(119,172,241); fill-rule: nonzero; opacity: 1;" transform=" translate(-13, -19)" d="M 14 20 H 12 a 1 1 0 0 1 0 -2 h 2 a 1 1 0 0 1 0 2 Z" stroke-linecap="round"/>
</g>
		<g transform="matrix(1 0 0 1 3 3)" id="249928">
<path style="stroke: none; stroke-width: 1; stroke-dasharray: none; stroke-linecap: butt; stroke-dashoffset: 0; stroke-linejoin: miter; stroke-miterlimit: 4; is-custom-font: none; font-file-url: none; fill: rgb(119,172,241); fill-rule: nonzero; opacity: 1;" transform=" translate(-19, -19)" d="M 20 20 H 18 a 1 1 0 0 1 0 -2 h 2 a 1 1 0 0 1 0 2 Z" stroke-linecap="round"/>
</g>
		<g transform="matrix(1 0 0 1 9 3)" id="148297">
<path style="stroke: none; stroke-width: 1; stroke-dasharray: none; stroke-linecap: butt; stroke-dashoffset: 0; stroke-linejoin: miter; stroke-miterlimit: 4; is-custom-font: none; font-file-url: none; fill: rgb(119,172,241); fill-rule: nonzero; opacity: 1;" transform=" translate(-25, -19)" d="M 26 20 H 24 a 1 1 0 0 1 0 -2 h 2 a 1 1 0 0 1 0 2 Z" stroke-linecap="round"/>
</g>
		<g transform="matrix(1 0 0 1 -9.5 7)" id="709979">
<path style="stroke: none; stroke-width: 1; stroke-dasharray: none; stroke-linecap: butt; stroke-dashoffset: 0; stroke-linejoin: miter; stroke-miterlimit: 4; is-custom-font: none; font-file-url: none; fill: rgb(119,172,241); fill-rule: nonzero; opacity: 1;" transform=" translate(-6.5, -23)" d="M 8 24 H 5 a 1 1 0 0 1 0 -2 H 8 a 1 1 0 0 1 0 2 Z" stroke-linecap="round"/>
</g>
		<g transform="matrix(1 0 0 1 -3 7)" id="5863">
<path style="stroke: none; stroke-width: 1; stroke-dasharray: none; stroke-linecap: butt; stroke-dashoffset: 0; stroke-linejoin: miter; stroke-miterlimit: 4; is-custom-font: none; font-file-url: none; fill: rgb(119,172,241); fill-rule: nonzero; opacity: 1;" transform=" translate(-13, -23)" d="M 14 24 H 12 a 1 1 0 0 1 0 -2 h 2 a 1 1 0 0 1 0 2 Z" stroke-linecap="round"/>
</g>
		<g transform="matrix(1 0 0 1 3 7)" id="324061">
<path style="stroke: none; stroke-width: 1; stroke-dasharray: none; stroke-linecap: butt; stroke-dashoffset: 0; stroke-linejoin: miter; stroke-miterlimit: 4; is-custom-font: none; font-file-url: none; fill: rgb(119,172,241); fill-rule: nonzero; opacity: 1;" transform=" translate(-19, -23)" d="M 20 24 H 18 a 1 1 0 0 1 0 -2 h 2 a 1 1 0 0 1 0 2 Z" stroke-linecap="round"/>
</g>
		<g transform="matrix(1 0 0 1 9.5 7)" id="394418">
<path style="stroke: none; stroke-width: 1; stroke-dasharray: none; stroke-linecap: butt; stroke-dashoffset: 0; stroke-linejoin: miter; stroke-miterlimit: 4; is-custom-font: none; font-file-url: none; fill: rgb(119,172,241); fill-rule: nonzero; opacity: 1;" transform=" translate(-25.5, -23)" d="M 27 24 H 24 a 1 1 0 0 1 0 -2 h 3 a 1 1 0 0 1 0 2 Z" stroke-linecap="round"/>
</g>
		<g transform="matrix(1 0 0 1 -9 11)" id="294866">
<path style="stroke: none; stroke-width: 1; stroke-dasharray: none; stroke-linecap: butt; stroke-dashoffset: 0; stroke-linejoin: miter; stroke-miterlimit: 4; is-custom-font: none; font-file-url: none; fill: rgb(119,172,241); fill-rule: nonzero; opacity: 1;" transform=" translate(-7, -27)" d="M 8 28 H 6 a 1 1 0 0 1 0 -2 H 8 a 1 1 0 0 1 0 2 Z" stroke-linecap="round"/>
</g>
		<g transform="matrix(1 0 0 1 0 11)" id="620806">
<path style="stroke: none; stroke-width: 1; stroke-dasharray: none; stroke-linecap: butt; stroke-dashoffset: 0; stroke-linejoin: miter; stroke-miterlimit: 4; is-custom-font: none; font-file-url: none; fill: rgb(119,172,241); fill-rule: nonzero; opacity: 1;" transform=" translate(-16, -27)" d="M 20 28 H 12 a 1 1 0 0 1 0 -2 h 8 a 1 1 0 0 1 0 2 Z" stroke-linecap="round"/>
</g>
		<g transform="matrix(1 0 0 1 9 11)" id="294703">
<path style="stroke: none; stroke-width: 1; stroke-dasharray: none; stroke-linecap: butt; stroke-dashoffset: 0; stroke-linejoin: miter; stroke-miterlimit: 4; is-custom-font: none; font-file-url: none; fill: rgb(119,172,241); fill-rule: nonzero; opacity: 1;" transform=" translate(-25, -27)" d="M 26 28 H 24 a 1 1 0 0 1 0 -2 h 2 a 1 1 0 0 1 0 2 Z" stroke-linecap="round"/>
</g>
		<g transform="matrix(1 0 0 1 0 -8)" id="896599">
<path style="stroke: none; stroke-width: 1; stroke-dasharray: none; stroke-linecap: butt; stroke-dashoffset: 0; stroke-linejoin: miter; stroke-miterlimit: 4; is-custom-font: none; font-file-url: none; fill: rgb(4,0,154); fill-rule: nonzero; opacity: 1;" transform=" translate(-16, -8)" d="M 16 16 a 1 1 0 0 1 -1 -1 V 13 a 3 3 0 0 1 3 -3 h 5 a 1 1 0 0 0 0 -2 H 9 A 3 3 0 0 1 9 2 h 5 a 1 1 0 0 0 1 -1 a 1 1 0 0 1 2 0 a 3 3 0 0 1 -3 3 H 9 A 1 1 0 0 0 9 6 H 23 a 3 3 0 0 1 0 6 H 18 a 1 1 0 0 0 -1 1 v 2 A 1 1 0 0 1 16 16 Z" stroke-linecap="round"/>
</g>
</g>
</g>
<g transform="matrix(2.6973 2.8243 -0.7232 0.6907 536.6748 582.3377)" id="27574">
<g style="" vector-effect="non-scaling-stroke">
		<g transform="matrix(1 0 0 1 0 0)" id="830474">
<path style="stroke: none; stroke-width: 1; stroke-dasharray: none; stroke-linecap: butt; stroke-dashoffset: 0; stroke-linejoin: miter; stroke-miterlimit: 4; is-custom-font: none; font-file-url: none; fill: none; fill-rule: nonzero; opacity: 1;" transform=" translate(-24, -24)" d="M 0 0 h 48 v 48 h -48 z" stroke-linecap="round"/>
</g>
		<g transform="matrix(1 0 0 1 0 0)" id="906600">
<path style="stroke: none; stroke-width: 1; stroke-dasharray: none; stroke-linecap: butt; stroke-dashoffset: 0; stroke-linejoin: miter; stroke-miterlimit: 4; is-custom-font: none; font-file-url: none; fill: rgb(0,0,0); fill-rule: nonzero; opacity: 1;" transform=" translate(-24, -24)" d="M 40 22 h -24.34 l 11.17 -11.17 l -2.83 -2.83 l -16 16 l 16 16 l 2.83 -2.83 l -11.17 -11.17 h 24.34 v -4 z" stroke-linecap="round"/>
</g>
</g>
</g>
<g transform="matrix(4.0818 5.6925 -3.561 2.5535 597.2985 370.6134)" id="668749">
<path style="stroke: none; stroke-width: 0; stroke-dasharray: none; stroke-linecap: butt; stroke-dashoffset: 0; stroke-linejoin: miter; stroke-miterlimit: 4; is-custom-font: none; font-file-url: none; fill: rgb(0,0,0); fill-rule: nonzero; opacity: 1;" vector-effect="non-scaling-stroke" transform=" translate(-16.0504, -15.9975)" d="M 22 9 a 1 1 0 0 0 0 1.42 l 4.6 4.6 H 3.06 a 1 1 0 1 0 0 2 H 26.58 L 22 21.59 A 1 1 0 0 0 22 23 a 1 1 0 0 0 1.41 0 l 6.36 -6.36 a 0.88 0.88 0 0 0 0 -1.27 L 23.42 9 A 1 1 0 0 0 22 9 Z" stroke-linecap="round"/>
</g>
<g transform="matrix(4.5715 -5.3073 3.3201 2.8598 281.2743 385.9428)" id="90392">
<path style="stroke: none; stroke-width: 0; stroke-dasharray: none; stroke-linecap: butt; stroke-dashoffset: 0; stroke-linejoin: miter; stroke-miterlimit: 4; is-custom-font: none; font-file-url: none; fill: rgb(0,0,0); fill-rule: nonzero; opacity: 1;" vector-effect="non-scaling-stroke" transform=" translate(-16.0504, -15.9975)" d="M 22 9 a 1 1 0 0 0 0 1.42 l 4.6 4.6 H 3.06 a 1 1 0 1 0 0 2 H 26.58 L 22 21.59 A 1 1 0 0 0 22 23 a 1 1 0 0 0 1.41 0 l 6.36 -6.36 a 0.88 0.88 0 0 0 0 -1.27 L 23.42 9 A 1 1 0 0 0 22 9 Z" stroke-linecap="round"/>
</g>
<g transform="matrix(-7.0047 0 0 -4.3819 470 651.062)" id="175994">
<path style="stroke: none; stroke-width: 0; stroke-dasharray: none; stroke-linecap: butt; stroke-dashoffset: 0; stroke-linejoin: miter; stroke-miterlimit: 4; is-custom-font: none; font-file-url: none; fill: rgb(0,0,0); fill-rule: nonzero; opacity: 1;" vector-effect="non-scaling-stroke" transform=" translate(-16.0504, -15.9975)" d="M 22 9 a 1 1 0 0 0 0 1.42 l 4.6 4.6 H 3.06 a 1 1 0 1 0 0 2 H 26.58 L 22 21.59 A 1 1 0 0 0 22 23 a 1 1 0 0 0 1.41 0 l 6.36 -6.36 a 0.88 0.88 0 0 0 0 -1.27 L 23.42 9 A 1 1 0 0 0 22 9 Z" stroke-linecap="round"/>
</g>
</svg>